<?xml version="1.0" encoding="utf-8"?>
<!-- Generator: Adobe Illustrator 28.0.0, SVG Export Plug-In . SVG Version: 6.00 Build 0)  -->
<svg version="1.1" id="Layer_1" xmlns="http://www.w3.org/2000/svg" xmlns:xlink="http://www.w3.org/1999/xlink" x="0px" y="0px"
	 viewBox="0 0 512 512" style="enable-background:new 0 0 512 512;" xml:space="preserve">
<style type="text/css">
	.st0{fill:#AADC23;}
	.st1{fill:#265E3B;}
	.st2{fill:#265E39;}
	.st3{fill:#01B853;}
	.st4{fill:#FFFFFF;}
	.st5{fill:#EA0028;}
</style>
<g id="layer1" transform="translate(20.0398,-63.812801)">
	<g id="g6668" transform="matrix(1.8719426,-0.23293253,-0.50052127,1.8074384,-7.7081206,-125.12919)">
		<path id="rect6709" class="st0" d="M24.83,107.74l277.87,35.81l78.45,293.38l-277.87-35.81L24.83,107.74z"/>
		<g id="g6717">
			<path id="path6700" class="st1" d="M66.62,208.78l80.35,67.94l41.84-81.81c0,0-38.73-21.89-39.69-22.02
				C148.16,172.77,66.62,208.78,66.62,208.78z"/>
			<path id="path6698" class="st2" d="M121.19,384.39l26.56,22.46l101.07,13.03l-51.19-43.28l-51.16-10.69L121.19,384.39z"/>
			<path id="path6696" class="st3" d="M197.63,376.6l51.19,43.28l132.32,17.05l-53.77-201.11l-107.48-90.87l-26.15,47.47
				l-14.46,168.67L197.63,376.6z"/>
			<path id="path6688" class="st4" d="M197.63,376.6c-14.12-134.55,27.94-151.4,23.4-228.63c-0.05-0.91-0.18-2.14-1.14-3.03
				s-1.75-0.93-3.2-0.83c-58.83,4.1-106.35-4.87-132.67-4.49c-12.62,0.18-20.5,2.13-20.29,9.74l1.58,56.68
				c0.03,1.21,0.58,2.1,1.31,2.74c0.73,0.63,1.66,1.03,2.8,0.3c33.43-21.31,78.62-5.27,107-15.09
				c-44.19,51.49-59.04,123.19-56.3,187.56c0.05,1.22,0.28,2.14,1.07,2.84c0.79,0.71,1.59,0.81,2.62,0.63
				C149.23,380.65,173.91,377.52,197.63,376.6z"/>
		</g>
		<g id="g6707">
			<path id="path6674" class="st5" d="M325.16,293.62c11.23,42-12.54,71.81-53.1,66.59l0,0c-40.55-5.23-82.54-43.51-93.77-85.51
				s12.54-71.81,53.1-66.59S313.93,251.62,325.16,293.62L325.16,293.62z"/>
			<g id="g6680">
				<path id="rect6648" class="st4" d="M202.99,248.65v43.69c0,11.98,7.48,19.36,18.32,19.36c4.18,0,6.28-1.26,7.33-2.4v2.67h17.08
					v-63.32h-17.08v51.14c-0.36,0.38-1.17,0.78-3.05,0.78c-4.7,0-5.52-3.13-5.52-7v-44.91H202.99z"/>
				<path id="path6656" class="st4" d="M277.36,248.58c-4.18,0-7.84,2.74-7.84,2.74v-2.67h-17.08l0,82.4h17.08v-18.83h6.61
					c17.77,0,19.39-10.45,19.39-16.51v-26.58C295.51,256.22,286.4,248.58,277.36,248.58z M270.66,259.07
					c5.5-0.05,7.77,3.34,7.77,7.56v26.86c0,4.79-2.1,6.89-6.74,6.89h-2.17v-41.26C269.91,259.09,270.29,259.07,270.66,259.07
					L270.66,259.07z"/>
			</g>
		</g>
	</g>
</g>
</svg>
